<svg xmlns="http://www.w3.org/2000/svg" xmlns:xlink="http://www.w3.org/1999/xlink" width="400" zoomAndPan="magnify" viewBox="0 0 300 84.749999" height="113" preserveAspectRatio="xMidYMid meet" version="1.0"><defs><g/><clipPath id="520fbf951e"><path d="M 43.164062 61.257812 L 244.511719 61.257812 L 244.511719 69.675781 L 43.164062 69.675781 Z M 43.164062 61.257812 " clip-rule="nonzero"/></clipPath><clipPath id="8b490dcfb1"><path d="M 43.164062 61.257812 L 44.984375 69.675781 L 244.511719 61.714844 L 244.398438 61.257812 L 43.164062 61.257812 " clip-rule="nonzero"/></clipPath></defs><g fill="#0658f6" fill-opacity="1"><g transform="translate(40.491375, 54.599106)"><g><path d="M 12.953125 0 L 7.03125 0 L 1.015625 -27.21875 L 6.796875 -27.21875 L 10.5 -8.75 L 15.828125 -27.21875 L 21.109375 -27.21875 L 26.390625 -8.828125 L 30.09375 -27.21875 L 35.6875 -27.21875 L 29.65625 0 L 23.75 0 L 18.34375 -19.015625 Z M 12.953125 0 "/></g></g></g><g fill="#0658f6" fill-opacity="1"><g transform="translate(76.177011, 54.599106)"><g><path d="M 20.25 -2.53125 C 19.007812 -1.519531 17.734375 -0.78125 16.421875 -0.3125 C 15.117188 0.15625 13.660156 0.390625 12.046875 0.390625 C 10.515625 0.390625 9.082031 0.117188 7.75 -0.421875 C 6.414062 -0.972656 5.265625 -1.710938 4.296875 -2.640625 C 3.328125 -3.578125 2.5625 -4.6875 2 -5.96875 C 1.445312 -7.25 1.171875 -8.628906 1.171875 -10.109375 C 1.171875 -11.554688 1.4375 -12.921875 1.96875 -14.203125 C 2.5 -15.492188 3.226562 -16.609375 4.15625 -17.546875 C 5.09375 -18.492188 6.203125 -19.238281 7.484375 -19.78125 C 8.765625 -20.332031 10.128906 -20.609375 11.578125 -20.609375 C 13.003906 -20.609375 14.332031 -20.328125 15.5625 -19.765625 C 16.800781 -19.210938 17.863281 -18.457031 18.75 -17.5 C 19.644531 -16.539062 20.34375 -15.390625 20.84375 -14.046875 C 21.351562 -12.710938 21.609375 -11.269531 21.609375 -9.71875 L 21.609375 -8.3125 L 6.53125 -8.3125 C 6.894531 -7.050781 7.59375 -6.03125 8.625 -5.25 C 9.664062 -4.46875 10.882812 -4.078125 12.28125 -4.078125 C 13.164062 -4.078125 13.992188 -4.21875 14.765625 -4.5 C 15.546875 -4.789062 16.207031 -5.195312 16.75 -5.71875 Z M 11.46875 -16.203125 C 10.25 -16.203125 9.195312 -15.832031 8.3125 -15.09375 C 7.4375 -14.363281 6.828125 -13.375 6.484375 -12.125 L 16.40625 -12.125 C 16.070312 -13.320312 15.457031 -14.300781 14.5625 -15.0625 C 13.664062 -15.820312 12.632812 -16.203125 11.46875 -16.203125 Z M 11.46875 -16.203125 "/></g></g></g><g fill="#0658f6" fill-opacity="1"><g transform="translate(97.945901, 54.599106)"><g><path d="M 23.40625 -10.109375 C 23.40625 -8.660156 23.128906 -7.300781 22.578125 -6.03125 C 22.035156 -4.757812 21.296875 -3.65625 20.359375 -2.71875 C 19.429688 -1.789062 18.328125 -1.0625 17.046875 -0.53125 C 15.765625 0 14.398438 0.265625 12.953125 0.265625 C 11.929688 0.265625 10.941406 0.125 9.984375 -0.15625 C 9.023438 -0.4375 8.144531 -0.835938 7.34375 -1.359375 L 7.34375 0 L 2.09375 0 L 2.09375 -27.21875 L 7.421875 -28.375 L 7.421875 -18.65625 C 8.222656 -19.25 9.109375 -19.707031 10.078125 -20.03125 C 11.054688 -20.363281 12.0625 -20.53125 13.09375 -20.53125 C 14.519531 -20.53125 15.863281 -20.253906 17.125 -19.703125 C 18.382812 -19.160156 19.476562 -18.421875 20.40625 -17.484375 C 21.34375 -16.554688 22.078125 -15.457031 22.609375 -14.1875 C 23.140625 -12.914062 23.40625 -11.554688 23.40625 -10.109375 Z M 12.25 -15.984375 C 11.289062 -15.984375 10.394531 -15.816406 9.5625 -15.484375 C 8.726562 -15.160156 8.015625 -14.691406 7.421875 -14.078125 L 7.421875 -6.109375 C 7.992188 -5.535156 8.703125 -5.078125 9.546875 -4.734375 C 10.390625 -4.398438 11.289062 -4.234375 12.25 -4.234375 C 13.90625 -4.234375 15.300781 -4.796875 16.4375 -5.921875 C 17.582031 -7.054688 18.15625 -8.453125 18.15625 -10.109375 C 18.15625 -11.765625 17.578125 -13.15625 16.421875 -14.28125 C 15.265625 -15.414062 13.875 -15.984375 12.25 -15.984375 Z M 12.25 -15.984375 "/></g></g></g><g fill="#0658f6" fill-opacity="1"><g transform="translate(121.502978, 54.599106)"><g><path d="M 29.46875 -13.5625 C 29.46875 -11.570312 29.125 -9.710938 28.4375 -7.984375 C 27.75 -6.265625 26.800781 -4.785156 25.59375 -3.546875 C 24.394531 -2.316406 22.953125 -1.347656 21.265625 -0.640625 C 19.578125 0.0664062 17.765625 0.421875 15.828125 0.421875 C 13.804688 0.421875 11.910156 0.0625 10.140625 -0.65625 C 8.378906 -1.382812 6.859375 -2.375 5.578125 -3.625 C 4.296875 -4.882812 3.28125 -6.367188 2.53125 -8.078125 C 1.78125 -9.796875 1.40625 -11.640625 1.40625 -13.609375 C 1.40625 -15.578125 1.769531 -17.414062 2.5 -19.125 C 3.238281 -20.832031 4.25 -22.316406 5.53125 -23.578125 C 6.820312 -24.835938 8.347656 -25.828125 10.109375 -26.546875 C 11.867188 -27.273438 13.75 -27.640625 15.75 -27.640625 C 18 -27.640625 20.117188 -27.1875 22.109375 -26.28125 C 24.109375 -25.375 25.757812 -24.128906 27.0625 -22.546875 L 23.125 -18.9375 C 22.164062 -20.070312 21.054688 -20.941406 19.796875 -21.546875 C 18.546875 -22.160156 17.195312 -22.46875 15.75 -22.46875 C 14.53125 -22.46875 13.394531 -22.238281 12.34375 -21.78125 C 11.289062 -21.332031 10.378906 -20.710938 9.609375 -19.921875 C 8.847656 -19.128906 8.253906 -18.195312 7.828125 -17.125 C 7.398438 -16.050781 7.1875 -14.878906 7.1875 -13.609375 C 7.1875 -12.335938 7.40625 -11.15625 7.84375 -10.0625 C 8.289062 -8.976562 8.898438 -8.039062 9.671875 -7.25 C 10.453125 -6.457031 11.378906 -5.832031 12.453125 -5.375 C 13.535156 -4.925781 14.6875 -4.703125 15.90625 -4.703125 C 17.820312 -4.703125 19.472656 -5.234375 20.859375 -6.296875 C 22.242188 -7.359375 23.101562 -8.71875 23.4375 -10.375 L 15.390625 -10.375 L 15.390625 -15.28125 L 29.46875 -15.28125 Z M 29.46875 -13.5625 "/></g></g></g><g fill="#0658f6" fill-opacity="1"><g transform="translate(151.357574, 54.599106)"><g><path d="M 20.25 -2.53125 C 19.007812 -1.519531 17.734375 -0.78125 16.421875 -0.3125 C 15.117188 0.15625 13.660156 0.390625 12.046875 0.390625 C 10.515625 0.390625 9.082031 0.117188 7.75 -0.421875 C 6.414062 -0.972656 5.265625 -1.710938 4.296875 -2.640625 C 3.328125 -3.578125 2.5625 -4.6875 2 -5.96875 C 1.445312 -7.25 1.171875 -8.628906 1.171875 -10.109375 C 1.171875 -11.554688 1.4375 -12.921875 1.96875 -14.203125 C 2.5 -15.492188 3.226562 -16.609375 4.15625 -17.546875 C 5.09375 -18.492188 6.203125 -19.238281 7.484375 -19.78125 C 8.765625 -20.332031 10.128906 -20.609375 11.578125 -20.609375 C 13.003906 -20.609375 14.332031 -20.328125 15.5625 -19.765625 C 16.800781 -19.210938 17.863281 -18.457031 18.75 -17.5 C 19.644531 -16.539062 20.34375 -15.390625 20.84375 -14.046875 C 21.351562 -12.710938 21.609375 -11.269531 21.609375 -9.71875 L 21.609375 -8.3125 L 6.53125 -8.3125 C 6.894531 -7.050781 7.59375 -6.03125 8.625 -5.25 C 9.664062 -4.46875 10.882812 -4.078125 12.28125 -4.078125 C 13.164062 -4.078125 13.992188 -4.21875 14.765625 -4.5 C 15.546875 -4.789062 16.207031 -5.195312 16.75 -5.71875 Z M 11.46875 -16.203125 C 10.25 -16.203125 9.195312 -15.832031 8.3125 -15.09375 C 7.4375 -14.363281 6.828125 -13.375 6.484375 -12.125 L 16.40625 -12.125 C 16.070312 -13.320312 15.457031 -14.300781 14.5625 -15.0625 C 13.664062 -15.820312 12.632812 -16.203125 11.46875 -16.203125 Z M 11.46875 -16.203125 "/></g></g></g><g fill="#0658f6" fill-opacity="1"><g transform="translate(173.126465, 54.599106)"><g><path d="M 2.09375 0 L 2.09375 -20.25 L 7.421875 -20.25 L 7.421875 -18.65625 C 8.203125 -19.300781 9.0625 -19.789062 10 -20.125 C 10.945312 -20.46875 11.976562 -20.640625 13.09375 -20.640625 C 15.425781 -20.640625 17.34375 -19.890625 18.84375 -18.390625 C 20.351562 -16.890625 21.109375 -14.957031 21.109375 -12.59375 L 21.109375 0 L 15.78125 0 L 15.78125 -11.8125 C 15.78125 -13.082031 15.394531 -14.109375 14.625 -14.890625 C 13.863281 -15.671875 12.847656 -16.0625 11.578125 -16.0625 C 10.703125 -16.0625 9.90625 -15.882812 9.1875 -15.53125 C 8.476562 -15.175781 7.890625 -14.675781 7.421875 -14.03125 L 7.421875 0 Z M 2.09375 0 "/></g></g></g><g fill="#0658f6" fill-opacity="1"><g transform="translate(195.167472, 54.599106)"><g><path d="M 4.75 -22.671875 C 3.914062 -22.671875 3.195312 -22.96875 2.59375 -23.5625 C 2 -24.15625 1.703125 -24.867188 1.703125 -25.703125 C 1.703125 -26.523438 2 -27.234375 2.59375 -27.828125 C 3.195312 -28.429688 3.914062 -28.734375 4.75 -28.734375 C 5.570312 -28.734375 6.28125 -28.429688 6.875 -27.828125 C 7.476562 -27.234375 7.78125 -26.523438 7.78125 -25.703125 C 7.78125 -24.867188 7.476562 -24.15625 6.875 -23.5625 C 6.28125 -22.96875 5.570312 -22.671875 4.75 -22.671875 Z M 7.421875 -20.25 L 7.421875 0 L 2.09375 0 L 2.09375 -20.25 Z M 7.421875 -20.25 "/></g></g></g><g fill="#0658f6" fill-opacity="1"><g transform="translate(203.641612, 54.599106)"><g><path d="M 7.265625 -20.25 L 7.265625 -8.46875 C 7.265625 -7.175781 7.644531 -6.140625 8.40625 -5.359375 C 9.175781 -4.585938 10.195312 -4.203125 11.46875 -4.203125 C 12.375 -4.203125 13.179688 -4.375 13.890625 -4.71875 C 14.609375 -5.070312 15.203125 -5.570312 15.671875 -6.21875 L 15.671875 -20.25 L 21 -20.25 L 21 0 L 15.671875 0 L 15.671875 -1.625 C 14.890625 -0.976562 14.019531 -0.476562 13.0625 -0.125 C 12.101562 0.21875 11.066406 0.390625 9.953125 0.390625 C 7.617188 0.390625 5.695312 -0.363281 4.1875 -1.875 C 2.6875 -3.394531 1.9375 -5.335938 1.9375 -7.703125 L 1.9375 -20.25 Z M 7.265625 -20.25 "/></g></g></g><g fill="#0658f6" fill-opacity="1"><g transform="translate(225.682619, 54.599106)"><g><path d="M 0.390625 -2.40625 L 3.03125 -5.953125 C 4.226562 -5.171875 5.359375 -4.59375 6.421875 -4.21875 C 7.484375 -3.84375 8.546875 -3.65625 9.609375 -3.65625 C 10.796875 -3.65625 11.742188 -3.847656 12.453125 -4.234375 C 13.171875 -4.628906 13.53125 -5.148438 13.53125 -5.796875 C 13.53125 -6.304688 13.328125 -6.71875 12.921875 -7.03125 C 12.523438 -7.34375 11.882812 -7.566406 11 -7.703125 L 7.109375 -8.28125 C 5.117188 -8.59375 3.597656 -9.238281 2.546875 -10.21875 C 1.492188 -11.207031 0.96875 -12.519531 0.96875 -14.15625 C 0.96875 -16.09375 1.734375 -17.644531 3.265625 -18.8125 C 4.796875 -19.976562 6.84375 -20.5625 9.40625 -20.5625 C 10.882812 -20.5625 12.320312 -20.347656 13.71875 -19.921875 C 15.125 -19.492188 16.460938 -18.863281 17.734375 -18.03125 L 15.15625 -14.609375 C 14.039062 -15.265625 12.976562 -15.753906 11.96875 -16.078125 C 10.957031 -16.398438 9.9375 -16.5625 8.90625 -16.5625 C 7.945312 -16.5625 7.175781 -16.378906 6.59375 -16.015625 C 6.007812 -15.648438 5.71875 -15.171875 5.71875 -14.578125 C 5.71875 -14.035156 5.929688 -13.613281 6.359375 -13.3125 C 6.785156 -13.019531 7.488281 -12.804688 8.46875 -12.671875 L 12.359375 -12.09375 C 14.328125 -11.800781 15.847656 -11.148438 16.921875 -10.140625 C 18.003906 -9.128906 18.546875 -7.847656 18.546875 -6.296875 C 18.546875 -5.335938 18.316406 -4.445312 17.859375 -3.625 C 17.410156 -2.8125 16.796875 -2.109375 16.015625 -1.515625 C 15.234375 -0.921875 14.296875 -0.453125 13.203125 -0.109375 C 12.117188 0.222656 10.945312 0.390625 9.6875 0.390625 C 7.84375 0.390625 6.113281 0.148438 4.5 -0.328125 C 2.894531 -0.804688 1.523438 -1.5 0.390625 -2.40625 Z M 0.390625 -2.40625 "/></g></g></g><g clip-path="url(#520fbf951e)"><g clip-path="url(#8b490dcfb1)"><path fill="#0658f6" d="M 43.164062 61.257812 L 244.511719 61.257812 L 244.511719 69.675781 L 43.164062 69.675781 Z M 43.164062 61.257812 " fill-opacity="1" fill-rule="nonzero"/></g></g></svg>